<?xml version="1.0" standalone="no"?>
<!DOCTYPE svg PUBLIC "-//W3C//DTD SVG 20010904//EN"
 "http://www.w3.org/TR/2001/REC-SVG-20010904/DTD/svg10.dtd">
<svg version="1.0" xmlns="http://www.w3.org/2000/svg"
 width="229.000000pt" height="229.000000pt" viewBox="0 0 229.000000 229.000000"
 preserveAspectRatio="xMidYMid meet">
<metadata>
Created by potrace 1.14, written by Peter Selinger 2001-2017
</metadata>
<g transform="translate(0.000000,229.000000) scale(0.100000,-0.100000)"
fill="#000000" stroke="none">
<path d="M619 1846 c-32 -11 -101 -66 -84 -66 4 0 -3 -13 -14 -29 -12 -16 -21
-35 -21 -43 0 -10 -3 -9 -10 2 -9 13 -10 13 -10 -1 0 -8 -8 -24 -19 -35 -10
-11 -26 -34 -34 -50 -16 -28 -16 -26 -17 72 0 77 -4 105 -15 114 -12 10 -16 7
-26 -16 -6 -16 -9 -29 -7 -30 2 0 -2 -7 -9 -15 -12 -15 -20 -88 -12 -104 3 -6
5 -17 4 -25 0 -8 3 -18 8 -21 14 -10 18 -60 7 -75 -7 -7 -9 -18 -5 -24 3 -5 1
-10 -4 -10 -6 0 -11 -7 -11 -15 0 -8 -5 -15 -10 -15 -6 0 -9 -3 -9 -7 3 -20
-3 -57 -8 -45 -2 6 -9 10 -14 6 -5 -3 -10 12 -11 33 -2 58 -3 63 -11 63 -4 0
-11 0 -17 0 -5 0 -10 -7 -10 -16 0 -8 -5 -12 -11 -9 -7 5 -9 -16 -8 -64 1 -39
5 -68 9 -66 7 4 18 -23 18 -42 0 -3 7 -10 16 -15 9 -5 13 -14 9 -21 -12 -20
-12 -35 1 -40 11 -5 15 16 19 100 0 7 5 9 10 6 6 -4 8 0 4 10 -4 10 -1 17 6
17 8 0 8 3 -2 9 -11 7 -10 11 5 20 11 6 15 11 10 11 -18 0 17 30 36 30 11 0
32 9 48 20 15 11 31 16 35 12 5 -4 5 -2 2 4 -3 6 5 17 18 24 14 7 25 19 25 27
0 7 5 13 10 13 18 0 10 18 -10 23 -11 3 -20 1 -20 -5 0 -5 -4 -7 -9 -3 -5 3
-17 -2 -25 -11 -9 -8 -16 -12 -16 -8 0 4 -9 -1 -20 -11 -19 -18 -20 -17 -20 4
0 12 4 19 10 16 6 -3 10 -1 10 5 0 13 51 89 83 124 12 13 45 36 74 50 33 18
57 38 65 57 7 16 15 29 18 29 3 0 7 11 8 25 1 14 1 25 -1 25 -1 -1 -18 -7 -38
-14z"/>
<path d="M1676 1853 c-16 -16 -2 -55 34 -93 22 -23 40 -40 40 -36 0 4 10 1 23
-6 12 -7 25 -11 30 -10 4 1 7 -5 7 -14 0 -8 4 -13 8 -10 4 2 21 -15 37 -39 17
-25 33 -45 37 -45 17 0 17 21 -1 39 -11 11 -17 22 -13 25 3 3 -2 6 -11 6 -9 0
-16 3 -16 8 3 19 -2 33 -11 27 -5 -3 -10 1 -10 9 0 9 -4 16 -10 16 -5 0 -10 7
-10 15 0 8 -4 15 -10 15 -5 0 -10 6 -10 13 0 27 -98 96 -114 80z"/>
<path d="M1919 1803 c-1 -12 -1 -135 0 -166 1 -19 5 -26 13 -21 7 4 8 3 4 -5
-4 -6 -12 -9 -17 -6 -16 11 -22 -25 -7 -43 35 -40 28 -71 -7 -32 -10 11 -22
17 -26 14 -5 -3 -9 -1 -9 4 0 5 -6 9 -12 9 -7 0 -21 4 -30 8 -13 5 -18 2 -18
-9 0 -9 5 -16 10 -16 6 0 10 -5 10 -10 0 -15 47 -60 54 -53 3 4 6 2 6 -4 0
-12 46 -33 76 -35 12 -1 21 -10 22 -22 0 -10 5 -22 9 -25 8 -6 11 -14 16 -51
2 -11 6 -23 10 -26 4 -4 4 -18 0 -32 -5 -21 -3 -24 10 -19 14 5 15 3 4 -13
-12 -20 -12 -20 -29 2 -10 13 -18 28 -18 34 0 7 -7 15 -16 18 -9 3 -12 11 -8
18 4 7 4 10 -1 6 -4 -4 -14 -3 -21 3 -8 7 -14 7 -19 -1 -3 -5 -2 -10 2 -10 5
0 9 -8 10 -17 3 -44 8 -63 16 -63 4 0 5 -4 2 -10 -3 -5 -1 -10 4 -10 6 0 11
-5 11 -11 0 -7 12 -22 26 -34 29 -25 41 -92 20 -108 -7 -6 -6 -7 3 -5 20 6 41
69 28 86 -5 6 -5 12 0 12 5 0 9 9 10 20 1 11 -2 18 -8 15 -5 -4 -6 3 -1 17 7
21 8 44 2 58 -9 24 -6 40 8 40 8 0 13 3 9 6 -3 4 1 13 9 21 8 8 12 19 9 24 -4
5 -2 9 2 9 5 0 9 25 9 55 0 30 -3 55 -8 55 -4 0 -8 7 -8 15 0 22 -40 19 -41
-2 -1 -10 -1 -22 0 -27 1 -5 -1 -22 -4 -38 -7 -29 -30 -34 -30 -7 -1 8 -6 24
-13 35 -6 12 -8 24 -5 28 3 3 1 6 -5 6 -7 0 -11 3 -11 8 3 19 -2 33 -11 27
-14 -8 -12 12 3 58 8 20 18 34 22 30 5 -5 3 1 -5 11 -11 14 -11 17 -2 12 10
-6 13 4 11 48 -1 31 -6 56 -11 56 -4 0 -8 8 -8 18 -1 31 -48 73 -51 45z"/>
<path d="M775 1632 c5 -10 0 -12 -24 -9 -26 5 -33 1 -46 -25 -8 -17 -15 -42
-15 -55 0 -12 -4 -23 -9 -23 -4 0 -8 -18 -7 -40 1 -22 -2 -40 -8 -40 -5 0 -6
-3 -3 -7 4 -3 2 -12 -4 -20 -8 -9 -8 -13 0 -13 7 0 8 -8 3 -22 -5 -13 -8 -30
-7 -38 1 -8 -3 -21 -8 -27 -6 -9 -6 -13 2 -13 6 0 11 -5 11 -11 0 -5 -3 -8 -7
-6 -5 3 -8 -23 -8 -56 1 -34 -1 -65 -3 -70 -2 -4 -3 -70 -3 -146 0 -142 -2
-149 -38 -127 -9 6 -12 5 -8 -1 8 -12 -112 -11 -132 1 -10 6 -12 5 -7 -2 10
-16 -16 -15 -33 1 -11 9 -12 9 -7 0 5 -9 0 -12 -17 -11 -19 2 -23 6 -17 18 18
32 23 57 26 108 1 29 -2 50 -7 46 -5 -3 -9 -1 -9 5 0 5 6 12 13 14 10 4 10 6
0 6 -7 1 -13 8 -13 16 0 8 -3 15 -6 15 -11 0 -33 -28 -27 -34 3 -3 1 -11 -4
-18 -6 -7 -9 -30 -8 -50 1 -21 -2 -38 -8 -38 -5 0 -7 7 -3 15 3 8 2 15 -2 15
-12 0 -32 77 -32 124 0 41 19 74 33 59 4 -3 7 1 7 10 0 10 4 17 10 17 5 0 13
12 16 28 4 15 10 29 15 32 10 7 16 72 7 71 -5 -1 -13 -1 -19 -1 -5 0 -8 -4 -5
-9 3 -5 -1 -11 -9 -15 -8 -3 -15 -13 -15 -21 0 -9 -4 -13 -10 -10 -6 3 -10 0
-10 -7 0 -18 -45 -79 -53 -72 -10 10 5 -40 17 -55 8 -11 8 -13 -1 -7 -7 4 -13
2 -13 -3 0 -6 5 -11 10 -11 6 0 10 -5 10 -11 0 -5 -5 -7 -11 -3 -8 4 -8 0 0
-15 7 -11 9 -21 6 -21 -9 0 -35 27 -35 36 0 15 -54 52 -68 46 -10 -3 -13 -1
-8 6 4 7 2 12 -3 12 -6 0 -11 -11 -11 -25 0 -14 4 -25 9 -25 5 0 12 -13 16
-28 3 -15 15 -35 27 -43 11 -8 26 -20 34 -26 7 -7 19 -13 26 -13 13 0 53 -39
51 -50 0 -5 5 -24 14 -50 11 -28 11 -40 2 -40 -5 0 -9 6 -9 13 0 7 -3 8 -8 2
-10 -14 -52 -15 -52 -1 0 6 -5 4 -10 -4 -5 -8 -10 -39 -10 -67 0 -53 8 -62 53
-54 4 1 17 -4 29 -10 18 -10 50 -15 106 -18 7 -1 10 -5 7 -11 -3 -5 -1 -10 5
-10 6 0 9 -4 5 -9 -3 -5 0 -13 6 -16 17 -11 23 3 9 20 -7 8 -9 15 -4 15 4 0
-1 7 -12 15 -10 8 -17 15 -14 15 40 9 39 10 43 -52 1 -18 10 -41 21 -51 10 -9
15 -17 10 -17 -5 0 2 -7 14 -16 12 -8 22 -22 22 -31 0 -11 -4 -13 -12 -6 -7 5
-35 10 -61 11 -39 0 -48 -3 -45 -15 7 -34 147 -79 163 -52 8 12 42 2 67 -20
12 -12 30 -21 40 -21 11 0 17 -4 14 -8 -3 -5 1 -9 9 -10 8 -1 22 -3 30 -4 8
-1 15 -6 15 -11 0 -6 3 -7 6 -4 4 3 14 2 24 -3 12 -6 17 -5 17 5 0 8 -3 12 -7
10 -13 -8 -71 28 -66 42 3 8 1 11 -4 8 -6 -3 -10 5 -10 19 0 14 -4 26 -10 26
-5 0 -10 7 -10 15 0 8 -4 15 -8 15 -5 0 -14 11 -22 24 -17 33 -42 23 -34 -13
4 -14 10 -30 14 -36 4 -5 10 -19 13 -30 6 -17 5 -18 -5 -4 -7 9 -19 14 -27 11
-8 -3 -11 0 -7 7 4 6 1 11 -8 11 -9 0 -16 5 -16 10 0 6 -7 10 -15 10 -8 0 -19
9 -25 20 -6 11 -7 20 -3 20 4 0 2 5 -5 12 -7 7 -12 29 -12 51 0 21 -4 36 -8
33 -4 -2 -8 5 -9 17 0 12 1 17 4 10 2 -7 11 -9 20 -6 11 4 14 2 9 -5 -7 -11
17 -17 62 -15 7 1 11 -2 8 -5 -11 -10 39 -37 71 -37 30 -1 69 26 56 39 -4 3 3
6 15 6 12 0 22 6 22 13 0 9 3 8 9 -2 6 -9 10 -10 12 -2 3 7 14 13 27 14 12 0
22 5 22 10 0 4 5 5 10 2 6 -3 10 -1 10 4 0 6 11 11 25 11 14 0 25 -6 25 -12 0
-10 2 -10 8 -1 9 14 202 15 202 0 0 -13 27 -37 42 -37 8 0 20 -6 27 -12 11
-11 12 -10 6 1 -9 16 8 8 37 -17 10 -8 33 -16 52 -17 26 -3 36 2 45 18 7 12
23 27 36 34 15 6 22 7 19 1 -4 -6 5 -2 20 7 14 10 26 14 26 11 0 -4 13 0 29 8
21 11 62 15 162 14 140 0 162 -7 132 -40 -12 -13 -12 -18 -3 -18 10 0 10 -3 0
-15 -7 -8 -9 -15 -5 -15 4 0 2 -7 -5 -15 -10 -12 -10 -15 1 -15 11 0 11 -2 -1
-10 -8 -5 -12 -10 -7 -10 4 0 0 -11 -9 -25 -9 -14 -20 -22 -25 -19 -5 3 -9 -2
-9 -10 0 -9 -6 -16 -14 -16 -8 0 -22 -7 -31 -16 -20 -20 -30 -12 -16 13 5 10
14 32 19 49 11 35 -2 41 -30 13 -19 -18 -68 -96 -68 -106 0 -5 5 -1 10 7 5 8
10 10 10 4 0 -6 -7 -17 -15 -24 -8 -7 -12 -16 -9 -21 3 -5 -7 -9 -23 -9 -36
-1 -71 -25 -48 -33 8 -4 14 -1 12 5 -1 6 10 12 25 12 14 1 30 4 34 8 4 5 16 8
26 8 11 0 16 5 13 10 -3 6 1 10 10 10 9 0 26 9 38 21 19 17 31 20 85 16 36 -3
62 -1 62 5 0 5 5 6 10 3 6 -3 10 -2 10 4 0 6 6 8 13 5 8 -3 20 2 27 10 7 9 15
14 19 12 4 -3 7 3 8 12 1 14 -8 18 -48 19 -27 0 -49 -3 -49 -8 0 -13 -27 -11
-35 2 -4 6 2 13 14 16 11 3 18 9 15 14 -3 5 2 9 11 9 9 0 14 4 11 8 -3 5 3 14
14 22 15 11 16 17 7 32 -8 12 -9 21 -2 26 6 4 10 13 11 20 2 28 5 32 22 32 14
0 15 -2 2 -10 -13 -8 -12 -10 3 -10 9 0 17 -5 17 -11 0 -8 4 -8 13 -2 6 6 21
9 31 7 11 -1 35 4 53 11 19 8 37 14 41 14 31 -5 50 4 54 24 5 32 -5 92 -17 92
-5 0 -16 4 -24 9 -10 7 -12 6 -6 -3 5 -9 0 -12 -16 -9 -34 4 -41 19 -23 47 9
13 11 20 5 17 -6 -4 -2 9 10 28 12 20 32 39 45 42 13 3 21 10 18 15 -3 5 4 9
16 9 12 0 19 4 16 9 -3 5 1 12 9 15 18 7 58 93 49 107 -10 17 -84 -35 -84 -60
0 -8 -2 -12 -5 -9 -3 3 -20 -8 -36 -25 -20 -20 -31 -40 -31 -61 -1 -42 -7 -51
-23 -29 -9 12 -10 23 -4 35 5 10 6 18 1 18 -4 0 -9 10 -9 22 -1 13 -7 24 -13
26 -5 2 -10 17 -10 33 0 16 -5 29 -11 29 -5 0 -7 5 -3 11 3 6 -5 3 -20 -6 -14
-10 -26 -13 -26 -9 0 5 -4 4 -8 -1 -17 -25 -112 -49 -97 -25 3 6 2 10 -4 10
-5 0 -12 8 -15 18 -9 28 -63 52 -117 52 -31 0 -48 -4 -44 -10 3 -6 -1 -7 -9
-4 -19 7 -19 14 -2 36 7 10 17 14 21 10 5 -4 5 -2 2 4 -4 6 2 19 13 29 11 10
20 24 20 32 0 7 5 13 10 13 6 0 10 7 10 15 0 8 5 15 11 15 5 0 7 5 4 10 -3 6
-1 10 4 10 6 0 11 9 11 21 0 11 5 17 10 14 6 -3 10 -1 10 5 0 5 9 29 19 53 25
53 23 121 -5 142 -22 16 -90 20 -99 5 -3 -5 -15 -10 -25 -10 -10 0 -23 -6 -27
-12 -4 -7 -27 -30 -50 -50 -23 -20 -39 -38 -37 -41 3 -3 -7 -14 -22 -26 -15
-11 -24 -21 -20 -21 4 0 -4 -15 -18 -33 -14 -19 -24 -36 -22 -38 2 -2 -2 -10
-10 -17 -12 -11 -14 -4 -9 55 4 37 7 86 8 108 2 22 6 45 10 52 4 6 2 15 -4 19
-8 5 -8 9 1 14 9 5 6 13 -11 29 -17 15 -26 18 -36 10 -7 -6 -13 -8 -13 -5 0 4
-8 2 -19 -3 -17 -10 -34 -56 -34 -93 0 -10 -2 -18 -6 -18 -6 0 -11 -31 -14
-87 -1 -18 -5 -33 -10 -33 -5 0 -8 -10 -7 -22 6 -66 0 -119 -12 -112 -10 6
-10 4 -2 -7 12 -16 12 -29 0 -48 -6 -10 -5 -12 2 -7 7 4 12 2 12 -3 0 -6 -5
-11 -11 -11 -8 0 -8 -4 0 -14 12 -15 5 -46 -11 -46 -5 0 -7 -3 -5 -7 3 -5 -10
-9 -29 -10 -25 -2 -34 1 -34 12 0 8 -5 15 -11 15 -5 0 -7 5 -4 10 3 6 -1 10
-10 10 -9 0 -13 5 -10 10 6 10 -7 14 -34 11 -7 -2 -10 2 -6 8 4 7 -14 11 -55
11 -46 0 -59 -3 -54 -12 5 -10 4 -10 -6 -1 -10 9 -5 20 21 55 19 23 36 45 39
48 20 20 80 137 80 155 0 9 4 14 9 11 8 -6 21 48 21 91 0 58 -84 81 -150 42
-47 -28 -170 -157 -170 -178 0 -5 -7 -14 -15 -21 -8 -7 -13 -16 -10 -20 3 -4
-2 -13 -10 -20 -13 -10 -14 -3 -12 54 1 36 5 66 9 66 4 0 3 12 -2 26 -6 14 -6
23 -1 20 5 -3 11 17 13 46 2 40 -1 57 -15 72 -10 12 -15 15 -12 8z m285 -124
c-7 -18 -23 -55 -36 -83 -13 -27 -23 -54 -23 -58 0 -5 -9 -17 -21 -27 -12 -10
-22 -27 -23 -38 0 -12 -4 -20 -7 -19 -3 1 -7 -2 -9 -8 -3 -5 -9 -15 -15 -21
-6 -6 -22 -27 -36 -47 -14 -20 -28 -37 -32 -37 -5 0 -8 -7 -8 -15 0 -9 -7 -18
-15 -21 -8 -4 -15 -11 -15 -16 0 -6 -11 -21 -24 -33 -14 -13 -22 -26 -18 -31
4 -4 1 -4 -6 0 -8 5 -9 13 -2 26 5 10 10 28 10 39 0 11 9 37 20 57 12 20 19
39 15 42 -3 3 -5 -1 -5 -8 0 -7 -3 -11 -6 -7 -4 3 3 18 15 33 11 14 18 30 15
35 -3 5 0 9 5 9 6 0 11 6 11 13 0 7 20 46 45 86 54 88 152 188 167 173 8 -8 7
-21 -2 -44z m613 8 c-6 -29 -26 -69 -38 -78 -5 -4 -6 -8 -1 -8 5 0 3 -7 -4
-15 -7 -8 -10 -15 -6 -15 3 0 -10 -22 -29 -50 -19 -27 -35 -54 -35 -60 0 -5
-4 -10 -10 -10 -5 0 -10 -7 -10 -15 0 -9 -7 -18 -15 -21 -8 -4 -15 -12 -15
-20 0 -8 -5 -14 -11 -14 -5 0 -7 -4 -4 -10 3 -5 -1 -10 -10 -10 -9 0 -14 -4
-11 -9 3 -4 -3 -16 -14 -26 -11 -10 -20 -24 -20 -32 0 -8 -4 -12 -9 -9 -5 3
-14 -8 -21 -24 -7 -17 -19 -30 -27 -30 -13 0 -13 3 -3 15 7 8 10 15 6 15 -3 0
-1 12 5 28 12 30 19 54 26 95 3 15 9 27 13 27 8 0 25 49 22 63 -1 4 6 7 15 7
9 0 13 3 10 7 -8 8 37 88 69 122 13 14 20 29 17 35 -3 6 -3 8 1 5 3 -3 27 14
52 39 47 45 67 45 57 -2z m-606 -379 c2 -2 8 -18 13 -36 7 -26 5 -35 -13 -51
-11 -11 -27 -20 -34 -20 -7 0 -22 -4 -33 -10 -11 -5 -29 -15 -40 -20 -12 -6
-25 -8 -30 -5 -6 4 -10 1 -10 -5 0 -6 -4 -8 -10 -5 -5 3 -10 2 -10 -4 0 -5
-11 -8 -25 -7 -13 2 -22 -1 -19 -5 3 -5 -4 -9 -15 -9 -12 0 -21 -4 -21 -8 0
-4 -9 -8 -20 -9 -11 -1 -20 2 -20 8 0 5 5 9 10 9 6 0 10 7 10 16 0 8 4 13 9 9
5 -3 12 3 16 14 3 11 20 30 38 44 18 14 43 34 57 46 14 11 30 25 36 30 7 5 15
7 18 4 3 -4 6 -1 6 6 0 7 4 10 9 6 5 -3 12 -1 16 5 6 9 51 7 62 -3z m611 -4
c7 -7 10 -17 7 -23 -3 -5 -2 -10 3 -10 13 0 10 -33 -5 -48 -7 -7 -18 -10 -24
-6 -8 4 -9 3 -5 -4 5 -8 0 -12 -13 -12 -12 0 -21 -5 -21 -12 0 -6 -3 -9 -6 -5
-4 3 -22 0 -40 -8 -19 -8 -34 -11 -34 -7 0 4 -4 2 -8 -3 -8 -12 -71 -35 -95
-35 -9 0 -17 -4 -17 -8 0 -4 -9 -8 -19 -9 -19 -2 -19 -1 -3 19 9 12 35 40 58
62 106 105 186 144 222 109z m242 -45 c0 6 5 12 10 12 7 0 7 -6 2 -17 -5 -10
-9 -42 -8 -70 1 -29 -3 -53 -8 -53 -5 0 -4 -6 1 -12 6 -7 15 -27 20 -44 l11
-30 -97 1 c-53 0 -102 4 -110 9 -10 6 -12 6 -7 -3 9 -14 -38 -11 -51 4 -4 4
-2 5 5 1 6 -4 12 -2 12 3 0 6 9 20 20 31 11 11 20 27 20 36 0 8 5 12 10 9 6
-4 10 5 10 20 0 14 4 24 9 21 5 -3 11 5 15 17 4 18 19 28 61 42 30 11 55 24
55 30 0 5 5 3 10 -5 6 -10 10 -11 10 -2z m-671 -25 c-1 -5 0 -10 1 -13 7 -18
3 -163 -5 -168 -17 -11 -130 -9 -137 2 -5 7 -8 7 -8 -1 0 -7 -4 -13 -10 -13
-15 0 -8 21 17 47 12 12 24 32 28 43 3 11 11 20 17 20 5 0 8 6 5 13 -2 6 5 20
16 30 11 9 16 17 11 17 -9 1 45 28 59 29 4 1 6 -2 6 -6z m-211 -101 c-7 -10
-29 -34 -49 -54 -28 -30 -38 -35 -49 -25 -7 7 -10 7 -7 1 4 -7 -18 -10 -68
-10 -58 1 -71 3 -63 13 6 7 14 10 19 7 5 -3 9 0 9 6 0 7 8 9 21 5 15 -5 19 -4
15 4 -7 10 8 15 41 14 7 -1 10 3 7 8 -3 5 2 9 11 9 15 0 22 3 80 32 36 18 51
13 33 -10z m601 -3 c-8 -5 -10 -9 -5 -9 5 0 -2 -9 -15 -21 -13 -12 -23 -25
-21 -30 1 -5 -5 -9 -13 -9 -8 0 -15 -4 -15 -8 0 -13 -33 -11 -49 2 -10 7 -13
7 -9 0 5 -7 -13 -10 -52 -10 -49 0 -56 2 -44 13 8 8 23 15 34 16 11 1 20 5 20
10 0 4 5 5 10 2 6 -3 10 -1 10 5 0 7 7 9 16 6 8 -3 12 -2 9 4 -4 6 7 10 25 10
18 0 29 4 25 10 -4 6 5 10 19 10 14 0 26 5 26 11 0 6 7 9 15 5 8 -3 15 0 16 7
0 8 2 7 6 -2 3 -7 -1 -17 -8 -22z"/>
<path d="M270 1219 c0 -5 5 -7 10 -4 6 3 10 8 10 11 0 2 -4 4 -10 4 -5 0 -10
-5 -10 -11z"/>
<path d="M1857 712 c-19 -21 -22 -32 -7 -32 10 0 34 39 27 46 -2 2 -11 -4 -20
-14z"/>
</g>
</svg>
